HIERARCHY
ROOT COM
{
	OFFSET 0.000000 0.000000 0.000000 
	CHANNELS 6 Xposition Yposition Zposition Zrotation Xrotation Yrotation
	JOINT Spine
	{
		OFFSET 0.000000 0.078370 -0.028498 
		CHANNELS 3 Zrotation Xrotation Yrotation
		JOINT Spine1
		{
			OFFSET 0.000000 0.111469 -0.000097 
			CHANNELS 3 Zrotation Xrotation Yrotation
			JOINT Spine2
			{
				OFFSET 0.000000 0.121511 -0.000092 
				CHANNELS 3 Zrotation Xrotation Yrotation
				JOINT Neck
				{
					OFFSET 0.000000 0.119873 -0.000040 
					CHANNELS 3 Zrotation Xrotation Yrotation
					JOINT Head
					{
						OFFSET 0.000000 0.051518 0.000000 
						CHANNELS 3 Zrotation Xrotation Yrotation
						End Site
						{
							OFFSET 0.000000 0.000000 0.000000 
						}
					}
					JOINT Leftcollar
					{
						OFFSET 0.033237 -0.012095 0.015552 
						CHANNELS 3 Zrotation Xrotation Yrotation
						JOINT LeftArm
						{
							OFFSET 0.131452 0.000000 0.000000 
							CHANNELS 3 Zrotation Xrotation Yrotation
							JOINT LeftForeArm
							{
								OFFSET 0.000000 -0.219203 0.000000 
								CHANNELS 3 Zrotation Xrotation Yrotation
								JOINT LeftHand
								{
									OFFSET 0.000000 -0.193166 0.000000 
									CHANNELS 3 Zrotation Xrotation Yrotation
									End Site
									{
										OFFSET -0.023329 -0.077705 -0.004495 
									}
								}
							}
						}
					}
					JOINT RightCollar
					{
						OFFSET -0.033237 -0.012094 0.015552 
						CHANNELS 3 Zrotation Xrotation Yrotation
						JOINT RightArm
						{
							OFFSET -0.131452 0.000000 0.000000 
							CHANNELS 3 Zrotation Xrotation Yrotation
							JOINT RightForeArm
							{
								OFFSET 0.000000 -0.219203 0.000000 
								CHANNELS 3 Zrotation Xrotation Yrotation
								JOINT RightHand
								{
									OFFSET 0.000000 -0.193166 0.000000 
									CHANNELS 3 Zrotation Xrotation Yrotation
									End Site
									{
										OFFSET 0.023329 -0.077705 -0.004495 
									}
								}
							}
						}
					}
				}
			}
		}
	}
	JOINT LeftUpLeg
	{
		OFFSET 0.077678 0.000000 0.000000 
		CHANNELS 3 Zrotation Xrotation Yrotation
		JOINT LeftLeg
		{
			OFFSET 0.000000 -0.359164 0.000000 
			CHANNELS 3 Zrotation Xrotation Yrotation
			JOINT LeftFoot
			{
				OFFSET 0.000000 -0.337214 0.000000 
				CHANNELS 3 Zrotation Xrotation Yrotation
				JOINT LeftToe
				{
					OFFSET 0.000000 0.000000 0.122098 
					CHANNELS 3 Zrotation Xrotation Yrotation
					End Site
					{
						OFFSET 0.000000 0.000000 0.000000 
					}
				}
			}
		}
	}
	JOINT RightUpLeg
	{
		OFFSET -0.077678 0.000000 0.000000 
		CHANNELS 3 Zrotation Xrotation Yrotation
		JOINT RightLeg
		{
			OFFSET 0.000000 -0.359164 0.000000 
			CHANNELS 3 Zrotation Xrotation Yrotation
			JOINT RightFoot
			{
				OFFSET 0.000000 -0.337214 0.000000 
				CHANNELS 3 Zrotation Xrotation Yrotation
				JOINT RightToe
				{
					OFFSET 0.000000 0.000000 0.122098 
					CHANNELS 3 Zrotation Xrotation Yrotation
					End Site
					{
						OFFSET 0.000000 0.000000 0.000000 
					}
				}
			}
		}
	}
}
MOTION
Frames: 15
Frame Time: 0.033333
0.324617 0.703780 0.106757 8.664310 2.941540 226.785004 5.201060 356.965271 0.000000 360.000000 360.000000 357.791077 0.000000 0.000000 0.000000 0.000000 0.000000 0.000000 0.000000 0.000000 0.000000 0.000000 0.000000 0.000000 20.118099 345.656708 345.890106 0.000000 317.764496 0.000000 360.000000 360.000000 90.000000 0.000000 0.000000 0.000000 335.372894 20.828300 42.779099 0.000000 341.177887 360.000000 360.000000 0.000000 270.000000 6.441230 8.699980 14.578500 360.000000 23.555599 360.000000 0.000000 0.010210 336.457611 0.000000 0.000000 360.000000 3.258060 344.269714 329.887512 0.000000 359.514709 360.000000 0.000002 36.381500 41.478901 360.000000 360.000000 0.000000 
0.308813 0.707440 0.085362 8.463150 5.049020 228.604004 6.795750 357.582581 360.000000 360.000000 0.000000 359.425354 360.000000 0.000000 0.000000 360.000000 360.000000 0.000000 0.000000 0.000000 0.000000 0.000000 0.000000 0.000000 18.573200 348.734406 345.385193 0.000000 322.734589 0.000000 360.000000 0.000000 90.000000 0.000000 0.000000 0.000000 334.009094 18.231100 44.813202 360.000000 339.631409 0.000000 360.000000 0.000000 270.000000 9.428460 8.758860 13.337100 0.000000 29.198500 360.000000 360.000000 4.746950 336.234985 0.000000 0.000000 0.000000 4.334520 347.612701 329.257813 0.000000 1.219270 360.000000 0.000003 32.263199 40.277199 0.000000 0.000000 0.000000 
0.294847 0.711433 0.067259 8.074320 5.753510 231.623993 6.923950 357.712799 0.000000 360.000000 360.000000 0.305705 360.000000 360.000000 0.000000 360.000000 360.000000 0.000000 360.000000 360.000000 0.000000 360.000000 360.000000 0.000000 17.381001 351.525635 345.524109 360.000000 328.112000 360.000000 0.000000 360.000000 90.000000 360.000000 360.000000 0.000000 332.715088 14.802300 45.226200 360.000000 337.839600 0.000000 360.000000 0.000000 270.000000 11.533900 5.503770 11.565800 360.000000 37.716499 0.000000 360.000000 11.769600 337.030792 360.000000 0.000000 0.000000 4.372250 350.215668 325.906708 360.000000 1.888230 360.000000 0.000000 29.614700 40.664398 360.000000 0.000000 360.000000 
0.280873 0.714598 0.051756 7.034890 5.994410 234.964005 6.304140 358.344421 0.000000 0.000000 360.000000 1.325980 0.000000 0.000000 0.000000 0.000000 0.000000 0.000000 0.000000 0.000000 0.000000 0.000000 0.000000 0.000000 16.642200 354.378265 346.054108 360.000000 332.998108 0.000000 0.000000 0.000000 90.000000 0.000000 0.000000 0.000000 330.921112 11.187400 44.459900 0.000000 335.643005 0.000000 0.000000 360.000000 270.000000 12.279500 1.413480 9.960270 360.000000 47.045601 0.000000 360.000000 18.037600 341.032196 0.000000 0.000000 360.000000 3.755460 353.080688 320.338593 360.000000 1.988350 360.000000 360.000000 28.413200 43.261002 360.000000 360.000000 0.000000 
0.267732 0.716458 0.037810 5.879160 6.469630 238.272995 5.878740 359.430756 0.000000 360.000000 360.000000 2.636630 0.000000 0.000000 0.000000 0.000000 0.000000 0.000000 0.000000 0.000000 0.000000 0.000000 0.000000 0.000000 16.274500 356.750641 346.939789 360.000000 337.815704 0.000000 0.000000 0.000000 90.000000 0.000000 0.000000 0.000000 329.037811 7.107140 42.139500 0.000000 334.229706 0.000000 360.000000 360.000000 270.000000 13.245800 357.030792 10.349000 360.000000 55.894402 0.000000 0.000000 22.644800 347.617889 0.000000 360.000000 360.000000 3.740460 356.185486 317.493896 0.000000 1.745850 0.000000 360.000000 26.209101 43.056400 0.000000 0.000000 0.000000 
0.255883 0.717562 0.026608 4.648820 6.645940 241.235001 5.291520 0.795077 360.000000 0.000000 0.000000 4.397430 0.000000 0.000000 360.000000 0.000000 0.000000 360.000000 0.000000 0.000000 360.000000 0.000000 0.000000 360.000000 16.237801 358.753448 347.723511 0.000000 342.397308 360.000000 0.000000 0.000000 90.000000 0.000000 0.000000 360.000000 326.860809 2.623870 38.770500 0.000000 333.807800 360.000000 360.000000 360.000000 270.000000 13.400000 352.977112 11.280800 360.000000 62.423801 360.000000 0.000000 18.858801 355.015228 0.000000 0.000000 0.000000 3.564800 358.772797 317.483887 360.000000 2.045480 0.000000 360.000000 22.946600 39.991901 0.000000 0.000000 0.000000 
0.242290 0.719003 0.016724 2.921330 6.132700 244.468002 4.026240 2.209220 0.000000 360.000000 360.000000 5.699200 0.000000 360.000000 360.000000 0.000000 360.000000 360.000000 0.000000 360.000000 360.000000 0.000000 360.000000 360.000000 16.598600 1.490980 349.133911 360.000000 345.325287 0.000000 0.000000 0.000000 90.000000 0.000000 360.000000 360.000000 324.253204 358.371307 35.283401 360.000000 333.506897 0.000000 360.000000 0.000000 270.000000 12.255800 349.613403 11.714500 360.000000 65.305901 0.000000 0.000000 14.580700 358.172729 360.000000 360.000000 0.000000 2.717440 1.756750 315.802795 0.000000 1.858410 360.000000 360.000000 20.751301 38.467400 0.000000 360.000000 360.000000 
0.229619 0.720091 0.007600 2.537330 5.343460 247.783005 3.069430 2.404530 360.000000 0.000000 0.000000 6.713700 360.000000 0.000000 360.000000 360.000000 0.000000 360.000000 360.000000 0.000000 360.000000 360.000000 0.000000 360.000000 17.552700 4.654720 349.812012 360.000000 346.785095 0.000000 360.000000 0.000000 90.000000 360.000000 0.000000 360.000000 321.710388 354.340546 31.341000 360.000000 333.479706 360.000000 360.000000 360.000000 270.000000 11.802900 345.125793 13.066400 360.000000 65.614403 360.000000 0.000000 14.157100 357.432922 0.000000 360.000000 0.000000 2.490510 3.479560 314.691589 360.000000 1.521690 360.000000 0.000001 18.790001 36.192799 360.000000 360.000000 0.000000 
0.215293 0.721078 0.000406 1.980390 4.517060 250.419998 2.247670 2.743210 360.000000 360.000000 0.000000 8.119690 360.000000 0.000000 360.000000 360.000000 0.000000 360.000000 360.000000 360.000000 360.000000 360.000000 360.000000 360.000000 18.492100 7.870090 350.737152 0.000000 347.838196 0.000000 0.000000 360.000000 90.000000 360.000000 360.000000 360.000000 318.490997 350.889465 27.644400 360.000000 332.951904 360.000000 360.000000 0.000000 270.000000 10.533200 342.094086 14.320600 360.000000 62.716000 0.000000 0.000000 13.159800 355.083038 0.000000 360.000000 360.000000 1.903530 5.240290 313.211487 0.000000 1.647530 0.000000 0.000001 17.205799 34.984798 360.000000 360.000000 0.000000 
0.201842 0.720777 -0.006115 2.346210 3.660250 253.076996 1.597480 2.410150 360.000000 0.000000 0.000000 9.430090 0.000000 360.000000 0.000000 0.000000 360.000000 0.000000 0.000000 0.000000 360.000000 0.000000 0.000000 360.000000 19.581400 10.828900 351.584045 0.000000 348.448090 360.000000 360.000000 0.000000 90.000000 0.000000 0.000000 360.000000 315.232513 348.272400 23.632299 360.000000 331.733887 0.000000 360.000000 360.000000 270.000000 9.577110 338.454407 15.901400 360.000000 58.071201 0.000000 0.000000 11.585900 352.755890 360.000000 0.000000 0.000000 1.644150 6.100450 310.472504 360.000000 1.761240 0.000000 360.000000 15.740900 35.012600 360.000000 0.000000 0.000000 
0.187634 0.719879 -0.011152 2.620190 2.929110 255.529007 1.001840 2.353000 0.000000 0.000000 0.000000 10.555800 360.000000 0.000000 360.000000 360.000000 0.000000 360.000000 360.000000 0.000000 360.000000 360.000000 0.000000 360.000000 20.489100 13.404900 354.482025 360.000000 348.785095 0.000000 360.000000 0.000000 90.000000 360.000000 0.000000 360.000000 312.152008 346.011505 19.715500 360.000000 330.259399 360.000000 360.000000 0.000000 270.000000 8.458680 335.873199 18.082600 0.000000 51.319000 360.000000 0.000000 9.631450 353.730042 360.000000 360.000000 0.000000 1.459410 7.208230 308.029999 0.000000 1.609420 0.000000 360.000000 14.564900 34.981499 360.000000 360.000000 0.000000 
0.173625 0.718149 -0.015380 3.420350 2.366690 257.726990 0.545300 1.963310 360.000000 360.000000 0.000000 11.394000 0.000000 0.000000 360.000000 0.000000 360.000000 0.000000 360.000000 360.000000 0.000000 360.000000 360.000000 0.000000 21.004900 15.558800 358.795044 0.000000 349.419403 0.000000 0.000000 0.000000 90.000000 360.000000 360.000000 0.000000 309.527405 343.975800 15.998800 360.000000 328.579803 360.000000 360.000000 360.000000 270.000000 7.766530 333.509705 21.435900 0.000000 43.297901 360.000000 360.000000 9.054000 355.647766 0.000000 0.000000 0.000000 1.574880 7.823000 306.375214 0.000000 1.406240 360.000000 360.000000 13.384300 34.305698 360.000000 360.000000 0.000000 
0.158530 0.716045 -0.018591 4.440480 2.012000 259.487000 0.273620 1.395680 0.000000 0.000000 0.000000 12.331800 0.000000 360.000000 0.000000 0.000000 360.000000 0.000000 360.000000 360.000000 360.000000 360.000000 360.000000 360.000000 21.351299 17.492800 2.059690 360.000000 350.076202 360.000000 0.000000 0.000000 90.000000 360.000000 360.000000 360.000000 307.706787 342.426605 11.734200 0.000000 326.515991 0.000000 360.000000 360.000000 270.000000 7.238150 331.920502 26.216200 0.000000 33.762100 0.000000 0.000000 9.534360 355.908936 360.000000 360.000000 360.000000 1.795730 8.290260 305.485291 360.000000 1.203520 0.000000 0.000001 12.418900 33.338100 360.000000 360.000000 360.000000 
0.141793 0.713295 -0.021055 5.094330 1.892710 260.778992 0.075833 1.166510 360.000000 360.000000 0.000000 13.087200 0.000000 360.000000 360.000000 0.000000 360.000000 360.000000 0.000000 360.000000 360.000000 0.000000 360.000000 360.000000 21.298100 19.299999 6.084520 0.000000 350.493011 360.000000 360.000000 0.000000 90.000000 0.000000 360.000000 360.000000 306.346191 341.142914 9.133440 0.000000 324.108887 360.000000 360.000000 0.000000 270.000000 6.434290 331.482300 33.035198 0.000000 23.557199 0.000000 360.000000 10.869200 353.260895 360.000000 360.000000 360.000000 2.146060 9.312610 305.004486 0.000000 0.666797 360.000000 0.000000 11.590300 32.497398 360.000000 0.000000 0.000000 
0.123538 0.709805 -0.022149 5.871180 2.181510 261.914001 0.295743 0.793882 360.000000 0.000000 360.000000 13.420900 360.000000 360.000000 0.000000 0.000000 360.000000 0.000000 0.000000 360.000000 0.000000 0.000000 360.000000 0.000000 20.830200 20.797800 8.772130 360.000000 351.436188 0.000000 360.000000 0.000000 90.000000 0.000000 360.000000 0.000000 305.849213 339.880493 7.122040 0.000000 321.683685 0.000000 0.000000 0.000000 270.000000 5.133090 330.945190 40.840900 0.000000 13.949900 0.000000 360.000000 12.897800 348.260101 360.000000 360.000000 360.000000 2.593390 10.191800 303.614685 0.000000 0.791304 360.000000 0.000000 11.145700 32.662300 360.000000 360.000000 0.000000 
